<svg width="60" height="46" viewBox="0 0 60 46" fill="none" xmlns="http://www.w3.org/2000/svg">
<path d="M28.9875 45.6167L4.94172 24.7889C3.9185 23.9583 3.11454 23 2.38367 21.9778C-1.56305 16.2917 -0.539826 9.00833 4.94172 4.28056C8.08448 1.53333 12.3235 0 16.7819 0C23.7983 0 28.1835 3.57778 30.0107 5.62222C31.8379 3.57778 36.2231 0 43.2395 0C47.6978 0 51.9369 1.53333 55.0796 4.28056C60.4881 9.00833 61.5844 16.2917 57.6377 21.9778C56.9068 23 56.1028 23.9583 55.0796 24.7889L31.0339 45.6167C30.4492 46.1278 29.5722 46.1278 28.9875 45.6167ZM16.7819 2.55556C13.0544 2.55556 9.61931 3.83333 6.98817 6.06944C2.52984 9.96667 1.65279 15.9722 4.86864 20.6361C5.45334 21.4667 6.18421 22.2972 6.98817 23L30.0107 42.9333L53.0332 23C53.8371 22.2972 54.568 21.5306 55.1527 20.6361C58.3686 15.9083 57.5646 9.90278 53.0332 6.06944C50.402 3.83333 46.8938 2.55556 43.2395 2.55556C37.9772 2.55556 33.592 5.04722 31.2532 8.49722C30.6685 9.32778 29.2798 9.32778 28.6951 8.49722C26.4294 5.04722 22.0442 2.55556 16.7819 2.55556Z" fill="black"/>
</svg>
