<svg width="70" height="47" viewBox="0 0 70 47" fill="none" xmlns="http://www.w3.org/2000/svg">
<g clip-path="url(#clip0_1_69)">
<path fill-rule="evenodd" clip-rule="evenodd" d="M35 0C15.6785 0 0 10.527 0 23.5C0 36.473 15.6785 47 35 47C54.3215 47 70 36.473 70 23.5C70 10.527 54.3215 0 35 0ZM35 0.979167C53.5325 0.979167 68.5417 11.0558 68.5417 23.5C68.5417 35.9442 53.5325 46.0208 35 46.0208C16.4675 46.0208 1.45833 35.9442 1.45833 23.5C1.45833 11.0558 16.4675 0.979167 35 0.979167ZM18.1927 12.7292C17.9993 12.7357 17.8177 12.7935 17.6878 12.8899C17.5579 12.9863 17.4903 13.1134 17.5 13.2432C17.5097 13.3731 17.5958 13.495 17.7393 13.5822C17.8829 13.6695 18.0722 13.7148 18.2656 13.7083H22.034L26.2981 28.9775C26.3301 29.0895 26.4192 29.1905 26.5502 29.263C26.6812 29.3356 26.8458 29.3752 27.0156 29.375H49.0058C49.0122 29.3751 49.0185 29.3751 49.0248 29.375C49.0496 29.3759 49.0744 29.3759 49.0992 29.375H49.3354C50.3504 29.375 51.0679 29.8352 51.0679 30.3542C51.0679 30.8731 50.3504 31.3333 49.3354 31.3333H26.8683C26.6749 31.3333 26.4895 31.3849 26.3527 31.4767C26.216 31.5685 26.1392 31.6931 26.1392 31.8229C26.1392 31.9528 26.216 32.0773 26.3527 32.1691C26.4895 32.2609 26.6749 32.3125 26.8683 32.3125H49.3354C51.046 32.3125 52.5263 31.4636 52.5263 30.3542C52.5263 29.3633 51.3435 28.5838 49.8721 28.4281L52.5175 17.2138C52.5339 17.1439 52.5276 17.0724 52.499 17.0043C52.4703 16.9362 52.42 16.8731 52.3516 16.8193C52.2831 16.7655 52.1981 16.7223 52.1023 16.6927C52.0066 16.6631 51.9025 16.6478 51.7971 16.6478H24.3381L23.3567 13.1287C23.3254 13.0166 23.237 12.9154 23.1065 12.8425C22.9761 12.7696 22.8118 12.7295 22.6421 12.7292H18.2671C18.2423 12.7283 18.2175 12.7283 18.1927 12.7292ZM45.9637 32.3125C44.7635 32.3125 43.7762 32.9764 43.7762 33.7812C43.7762 34.5861 44.7635 35.25 45.9637 35.25C47.1625 35.25 48.1513 34.5861 48.1513 33.7812C48.1513 32.9764 47.1625 32.3125 45.9637 32.3125ZM31.3804 32.3125C30.1802 32.3125 29.1929 32.9764 29.1929 33.7812C29.1929 34.5861 30.1802 35.25 31.3804 35.25C32.5792 35.25 33.5679 34.5861 33.5679 33.7812C33.5679 32.9764 32.5792 32.3125 31.3804 32.3125ZM24.6123 17.627H29.2527L29.4948 19.5833H25.1592L24.6123 17.627ZM30.714 17.627H35.0262V19.5833H30.956L30.714 17.627ZM36.4846 17.627H39.4012V19.5833H36.4846V17.627ZM40.8596 17.627H45.1719L44.9298 19.5833H40.8596V17.627ZM46.6331 17.627H50.9425L50.4802 19.5833H46.391L46.6331 17.627ZM25.4319 20.5625H29.6173L29.8594 22.5208H25.9802L25.4319 20.5625ZM31.0785 20.5625H35.0262V22.5208H31.3206L31.0785 20.5625ZM36.4846 20.5625H39.4012V22.5208H36.4846V20.5625ZM40.8596 20.5625H44.8073L44.5652 22.5208H40.8596V20.5625ZM46.2685 20.5625H50.2498L49.789 22.5208H46.0265L46.2685 20.5625ZM26.2529 23.5H29.9819L30.224 25.4583H26.7998L26.2529 23.5ZM31.4431 23.5H35.0262V25.4583H31.6852L31.4431 23.5ZM36.4846 23.5H39.4012V25.4583H36.4846V23.5ZM40.8596 23.5H44.4427L44.2006 25.4583H40.8596V23.5ZM45.904 23.5H49.5571L49.0963 25.4583H45.6619L45.904 23.5ZM27.0725 26.4375H30.3435L30.5885 28.3958H27.6194L27.0725 26.4375ZM31.8077 26.4375H35.0262V28.3958H32.0498L31.8077 26.4375ZM36.4846 26.4375H39.4012V28.3958H36.4846V26.4375ZM40.8596 26.4375H44.0781L43.836 28.3958H40.8596V26.4375ZM45.5408 26.4375H48.8658L48.4006 28.3958H45.2973L45.5408 26.4375ZM31.3804 33.2917C31.7917 33.2917 32.1096 33.5051 32.1096 33.7812C32.1096 34.0574 31.7917 34.2708 31.3804 34.2708C31.2843 34.2718 31.1888 34.2597 31.0998 34.2354C31.0107 34.2112 30.9297 34.1751 30.8618 34.1295C30.7938 34.0839 30.7401 34.0295 30.704 33.9697C30.6678 33.9099 30.6499 33.8458 30.6513 33.7812C30.6513 33.5051 30.9692 33.2917 31.3804 33.2917ZM45.9637 33.2917C46.375 33.2917 46.6929 33.5051 46.6929 33.7812C46.6929 34.0574 46.375 34.2708 45.9637 34.2708C45.8676 34.2718 45.7722 34.2597 45.6831 34.2354C45.594 34.2112 45.5131 34.1751 45.4451 34.1295C45.3771 34.0839 45.3234 34.0295 45.2873 33.9697C45.2511 33.9099 45.2332 33.8458 45.2346 33.7812C45.2346 33.5051 45.5525 33.2917 45.9637 33.2917Z" fill="black"/>
</g>
<defs>
<clipPath id="clip0_1_69">
<rect width="70" height="47" fill="white"/>
</clipPath>
</defs>
</svg>
