<svg width="69" height="59" viewBox="0 0 69 59" fill="none" xmlns="http://www.w3.org/2000/svg">
<g clip-path="url(#clip0_1_23)">
<path d="M48.0862 26.8913C48.0878 26.8914 48.228 26.7962 48.4927 26.7252C48.6251 26.6899 48.7895 26.6608 48.977 26.6536C49.0238 26.6518 49.0719 26.6514 49.1213 26.6526C49.1706 26.6537 49.221 26.6566 49.2722 26.6612C49.3747 26.6705 49.4806 26.6873 49.5871 26.7133C50.0136 26.8176 50.4487 27.0712 50.7043 27.5945C50.8326 27.8562 50.9172 28.1853 50.9396 28.5971C50.9451 28.7001 50.9469 28.8082 50.9444 28.9217C50.9419 29.0353 50.9353 29.1542 50.9243 29.2788C50.9021 29.5279 50.8622 29.7997 50.8027 30.0957C50.804 30.0954 50.8582 30.9905 50.4821 32.019C50.1285 33.0245 49.2794 34.2597 47.7118 34.6127C47.8921 32.0586 47.8977 29.4567 48.0862 26.8913Z" fill="white"/>
<path d="M47.9068 26.9943C47.9068 26.9943 50.6378 26.2744 50.5417 28.663C50.5417 28.663 50.1351 32.1266 49.9586 32.4458C49.9586 32.4458 48.886 34.4624 47.116 34.5518L47.0945 35.2018C47.0945 35.2018 50.2056 34.8624 50.8065 31.8122L51.2807 29.0413C51.2807 29.0413 51.649 25.3741 48.0769 26.3065L47.9068 26.9943Z" fill="#3B434F"/>
<path d="M48.8082 31.8064C48.8082 31.8064 48.9611 31.9047 49.0924 31.9047C49.2237 31.9047 49.3746 31.8064 49.3746 31.8064L49.6565 29.3901C49.6565 29.3901 49.2676 28.2001 47.6175 28.829L47.5785 29.5199C47.5785 29.5199 49.0262 29.0831 48.9963 29.627C48.9675 30.1506 48.8082 31.8064 48.8082 31.8064Z" fill="#3B434F"/>
<path d="M41.6893 27.4335C42.3244 27.4335 42.8393 27.8737 42.8393 28.4168C42.8393 28.9599 42.3244 29.4001 41.6893 29.4001C41.0542 29.4001 40.5393 28.9599 40.5393 28.4168C40.5393 27.8737 41.0542 27.4335 41.6893 27.4335Z" fill="#3B434F"/>
<path d="M41.8618 31.0718C42.6557 31.0718 43.2993 31.6221 43.2993 32.301C43.2993 32.9798 42.6557 33.5301 41.8618 33.5301C41.0679 33.5301 40.4243 32.9798 40.4243 32.301C40.4243 31.6221 41.0679 31.0718 41.8618 31.0718Z" fill="#EDF1F1"/>
<path d="M15.6813 57.8477C15.6813 57.8477 14.7898 47.4779 26.2038 46.5101H31.3213V44.4943C31.3213 44.4943 34.9211 45.8164 38.5663 44.6418L38.6813 46.5101H44.6613C44.6613 46.5101 54.9015 46.854 54.4363 57.946L15.6813 57.8477Z" fill="white"/>
<path d="M54.5363 58.261H16.1933H15.4497L15.6353 55.5495C15.9977 50.2554 20.8759 46.2151 26.4583 46.2151H30.7068V46.756H26.7972C21.4169 46.756 16.7153 50.6449 16.366 55.7408L16.2371 57.6218H54.435L54.3636 55.7408C54.0143 50.6449 49.3127 46.756 43.9324 46.756H38.6993V46.2151H44.2372C49.8196 46.2151 54.6978 50.2554 55.0602 55.5495L55.2458 58.261H54.5363Z" fill="#3B434F"/>
<path d="M34.7318 52.3118C31.6514 52.3118 29.1543 50.1766 29.1543 47.5426C29.1543 47.0817 29.2323 46.6367 29.3749 46.2151H29.3843H29.9762H30.9943V46.756H29.8154C29.7595 47.011 29.7293 47.2737 29.7293 47.5426C29.7293 49.905 31.969 51.8201 34.7318 51.8201C37.4946 51.8201 39.7343 49.905 39.7343 47.5426C39.7343 47.2737 39.7041 47.011 39.6482 46.756H38.4693V46.2151H39.4874H40.0793H40.0887C40.2313 46.6367 40.3093 47.0817 40.3093 47.5426C40.3093 50.1766 37.8122 52.3118 34.7318 52.3118Z" fill="#3B434F"/>
<path d="M31.4543 44.2668V47.2992C31.4543 48.8728 32.9474 50.1485 34.7893 50.1485C36.6312 50.1485 38.1243 48.8728 38.1243 47.2992V44.3294C38.3179 44.279 38.5096 44.2243 38.6993 44.1652V47.3199C38.6993 49.1808 36.9359 50.6893 34.7606 50.6893C32.5852 50.6893 30.8218 49.1808 30.8218 47.3199V44.0718C31.0301 44.1422 31.2411 44.207 31.4543 44.2668Z" fill="#3B434F"/>
<path d="M34.9332 13.421C42.0863 13.421 47.7322 19.1367 47.5486 26.0044L47.3535 33.3034C47.1806 39.7734 41.6217 44.8876 34.9332 44.8876C28.2447 44.8876 22.6859 39.7734 22.5129 33.3034L22.3178 26.0044C22.1342 19.1367 27.7801 13.421 34.9332 13.421Z" fill="white"/>
<path fill-rule="evenodd" clip-rule="evenodd" d="M48.1234 25.7781L47.9189 33.3737C47.7377 40.1065 41.913 45.4285 34.9045 45.4285C27.896 45.4285 22.0713 40.1065 21.89 33.3737L21.6856 25.7781C21.4932 18.6314 27.4092 12.6835 34.9045 12.6835C42.3997 12.6835 48.3157 18.6314 48.1234 25.7781ZM34.8758 13.4701C27.8205 13.4701 22.2517 19.1412 22.4328 25.9552L22.6253 33.1973C22.7958 39.6167 28.2787 44.691 34.8758 44.691C41.4729 44.691 46.9557 39.6167 47.1263 33.1973L47.3187 25.9552C47.4998 19.1412 41.9311 13.4701 34.8758 13.4701Z" fill="#3B434F"/>
<path opacity="0.058824" fill-rule="evenodd" clip-rule="evenodd" d="M47.7645 27.0401L47.1895 35.1035C47.1895 35.1035 44.6357 44.4111 34.7695 45.5131V45.5268C34.7502 45.5248 34.7314 45.5221 34.712 45.52C34.6927 45.5221 34.6739 45.5248 34.6545 45.5268V45.5131C24.7884 44.4111 22.2345 35.1035 22.2345 35.1035L21.6595 27.0401C24.2198 36.7575 26.3745 37.3651 26.3745 37.3651C25.9385 34.4185 29.4795 34.7101 29.4795 34.7101C31.6377 35.0219 33.3557 35.1725 34.712 35.2288C36.0684 35.1725 37.7864 35.0219 39.9445 34.7101C39.9445 34.7101 43.4856 34.4185 43.0495 37.3651C43.0495 37.3651 45.2043 36.7575 47.7645 27.0401ZM41.3708 38.3646C41.2034 36.6313 39.981 36.7782 39.981 36.7782C37.808 37.325 36.1022 37.6287 34.7695 37.7831V37.7717C33.4462 37.6186 31.7524 37.3174 29.5945 36.7751C29.5945 36.7751 28.3808 36.6294 28.2145 38.3485C28.2145 38.3485 27.7271 40.0708 29.3645 40.8068L31.4345 42.6751C31.4345 42.6751 32.8491 43.0585 32.8145 41.5935C32.8145 41.5935 32.6706 40.5008 33.5045 40.3151H34.7695V40.3475H36.0435C36.8833 40.5347 36.7383 41.6364 36.7383 41.6364C36.7035 43.1135 38.1281 42.727 38.1281 42.727L40.2127 40.8432C41.8616 40.1012 41.3708 38.3646 41.3708 38.3646Z" fill="#3B434F"/>
<path d="M33.5243 41.0035H36.2843C36.4113 41.0035 36.5143 41.0915 36.5143 41.2001C36.5143 41.3088 36.4113 41.3968 36.2843 41.3968H33.5243C33.3973 41.3968 33.2943 41.3088 33.2943 41.2001C33.2943 41.0915 33.3973 41.0035 33.5243 41.0035Z" fill="#3B434F"/>
<path d="M31.109 38.6504L31.4293 38.267C32.4589 38.7706 33.6822 39.0626 34.9946 39.0626C36.3216 39.0626 37.5574 38.764 38.5941 38.25L38.9294 38.646C37.8016 39.2042 36.4577 39.5285 35.0148 39.5285C33.5757 39.5285 32.235 39.206 31.109 38.6504Z" fill="#3B434F"/>
<path d="M21.6713 26.8857C21.6697 26.8858 21.5301 26.7904 21.2665 26.7195C21.1348 26.6841 20.971 26.6549 20.7844 26.6478C20.7378 26.646 20.6898 26.6455 20.6407 26.6467C20.5916 26.6479 20.5414 26.6507 20.4904 26.6554C20.3884 26.6647 20.283 26.6815 20.1769 26.7075C19.7522 26.8119 19.319 27.0656 19.0646 27.5893C18.9369 27.8511 18.8526 28.1805 18.8304 28.5926C18.8248 28.6956 18.8231 28.8038 18.8255 28.9175C18.828 29.0311 18.8346 29.1501 18.8456 29.2747C18.8676 29.5241 18.9074 29.796 18.9666 30.0923C18.9653 30.092 18.9114 30.9876 19.2858 32.0168C19.6379 33.023 20.4832 34.2591 22.0441 34.6123C21.8646 32.0565 21.859 29.4527 21.6713 26.8857Z" fill="white"/>
<path d="M21.8493 26.9887C21.8493 26.9887 19.1302 26.2683 19.2259 28.6586C19.2259 28.6586 19.6307 32.1245 19.8065 32.4439C19.8065 32.4439 20.8744 34.4619 22.6367 34.5514L22.6581 35.2018C22.6581 35.2018 19.5606 34.8622 18.9623 31.8099L18.4901 29.0371C18.4901 29.0371 18.1234 25.3675 21.6799 26.3005L21.8493 26.9887Z" fill="#3B434F"/>
<path d="M20.9518 31.8041C20.9518 31.8041 20.7996 31.9024 20.6689 31.9024C20.5382 31.9024 20.3878 31.8041 20.3878 31.8041L20.1072 29.3861C20.1072 29.3861 20.4944 28.1954 22.1373 28.8247L22.1762 29.516C22.1762 29.516 20.7348 29.0789 20.7646 29.6232C20.7932 30.1471 20.9518 31.8041 20.9518 31.8041Z" fill="#3B434F"/>
<path fill-rule="evenodd" clip-rule="evenodd" d="M35.9681 31.6126C36.0351 31.6126 36.1022 31.6126 36.1693 31.6126C36.5854 32.0958 36.7547 32.8383 36.9743 33.481C37.0424 33.6801 36.9763 34.0285 36.9168 34.1693C36.6988 34.685 36.0142 34.6758 35.4506 34.9068C35.2992 34.9689 35.1866 35.0759 34.9906 35.1035C34.8628 35.0072 34.7085 34.9883 34.6456 34.8331C34.4903 34.6502 34.6904 34.536 34.8468 34.4643C35.1307 34.3341 36.0069 34.2058 36.1118 33.9726C36.2416 33.8464 36.1553 33.4667 36.1118 33.3335C36.0004 32.9921 35.9469 32.7072 35.7956 32.3993C35.695 32.1948 35.5185 31.9792 35.6231 31.7356C35.7097 31.7037 35.8971 31.6675 35.9681 31.6126Z" fill="#3B434F"/>
<path d="M28.2343 27.4335C28.8694 27.4335 29.3843 27.8737 29.3843 28.4168C29.3843 28.9599 28.8694 29.4001 28.2343 29.4001C27.5992 29.4001 27.0843 28.9599 27.0843 28.4168C27.0843 27.8737 27.5992 27.4335 28.2343 27.4335Z" fill="#3B434F"/>
<path d="M27.9468 31.0718C28.7407 31.0718 29.3843 31.6221 29.3843 32.301C29.3843 32.9798 28.7407 33.5301 27.9468 33.5301C27.1529 33.5301 26.5093 32.9798 26.5093 32.301C26.5093 31.6221 27.1529 31.0718 27.9468 31.0718Z" fill="#EDF1F1"/>
<path d="M38.587 26.0938C38.587 26.0938 42.0296 24.4108 44.4888 26.265L45.1393 26.3513C45.1393 26.3513 44.3061 23.7588 38.2393 25.4445L38.4082 25.9277M38.543 25.9277C38.543 25.9277 42.0451 24.2077 44.354 26.3803L45.5436 26.3513C45.5436 26.3513 44.06 23.5819 37.9698 25.3293L38.543 26.043" fill="#3B434F"/>
<path d="M31.1899 26.1035C31.1899 26.1035 27.7589 24.4354 25.3079 26.2732L24.6595 26.3587C24.6595 26.3587 25.4899 23.7892 31.5365 25.46L31.3682 25.9389M31.2339 25.9389C31.2339 25.9389 27.7434 24.2341 25.4422 26.3875L24.2566 26.3587C24.2566 26.3587 25.7352 23.6139 31.8051 25.3458L31.2339 26.0532" fill="#3B434F"/>
<path d="M22.068 26.4501C22.068 26.4501 22.5117 20.5275 26.7861 17.8951C26.7861 17.8951 32.9579 21.4851 42.6666 17.8951C42.6666 17.8951 46.9608 19.5676 47.6148 26.4501H47.8454C47.8454 26.4501 49.0748 18.5666 45.8887 15.4368C45.8887 15.4368 45.1038 13.0399 40.9404 11.3068L39.4444 12.0935C39.4444 12.0935 38.4393 11.0418 35.762 9.73346C35.762 9.73346 33.7819 10.4879 32.77 11.7985L31.159 10.9135C31.159 10.9135 28.9078 11.7946 27.5916 13.3718L25.175 13.6668L23.9092 15.6335C23.9092 15.6335 20.8876 17.715 21.8375 26.2535L22.068 26.4501Z" fill="#3B434F"/>
<mask id="mask0_1_23" style="mask-type:luminance" maskUnits="userSpaceOnUse" x="0" y="0" width="69" height="59">
<path d="M0 0H69V59H0V0Z" fill="white"/>
<path d="M22.0818 24.0901C22.0818 24.0901 22.8797 19.9738 26.7861 17.4526C26.7861 17.4526 33.1304 21.1409 42.8391 17.551C42.8391 17.551 46.4259 18.9933 47.6693 24.1393C47.6693 24.1393 48.4074 18.8465 45.5993 15.5843C45.5993 15.5843 45.1052 13.4333 40.9418 11.7001L39.3893 12.4868C39.3893 12.4868 38.3866 11.4351 35.7093 10.1268C35.7093 10.1268 33.9037 10.9304 32.8918 12.241L31.1668 11.3068C31.1668 11.3068 29.0905 12.1388 27.7743 13.716L25.4743 14.011L24.2668 15.8793C24.2668 15.8793 21.7588 17.5173 22.0243 24.1393L22.0818 24.0901Z" fill="black"/>
</mask>
<g mask="url(#mask0_1_23)">
<path d="M22.4705 26.4993C22.4705 26.4993 23.0527 20.9627 26.7861 18.2393C26.7861 18.2393 32.9579 21.8784 42.6666 18.2885C42.6666 18.2885 46.5583 19.5184 47.2123 26.401L48.3053 26.4501C48.3053 26.4501 49.5348 18.5174 46.3487 15.3876C46.3487 15.3876 45.2188 12.6466 41.0554 10.9135L39.5043 11.6509C39.5043 11.6509 38.5016 10.6484 35.8243 9.34012C35.8243 9.34012 33.7312 9.99619 32.7193 11.3068L31.2165 10.471C31.2165 10.471 28.7928 11.4504 27.4766 13.0276L24.945 13.3226L23.5642 15.4859C23.5642 15.4859 20.5426 17.715 21.4925 26.2535L22.4705 26.4993Z" fill="#3B434F"/>
</g>
<path opacity="0.2" fill-rule="evenodd" clip-rule="evenodd" d="M35.0578 11.9467C35.1424 12.0005 35.1005 12.0503 35.0821 12.1176C35.0547 12.218 35.0222 12.3174 35.0039 12.4175C34.9762 12.5693 34.9508 12.7213 34.9436 12.871C34.9375 12.997 34.9401 13.1225 34.9427 13.2472C34.9442 13.3192 34.9586 13.3911 34.9606 13.4632C34.9615 13.492 34.9706 13.5209 34.9716 13.5501C34.9737 13.5581 34.9757 13.566 34.9778 13.574C34.979 13.6108 34.9903 13.6459 34.9915 13.6826C34.9985 13.7159 35.0055 13.7492 35.0125 13.7824C35.0229 13.8352 35.0279 13.8902 35.0467 13.9415C35.0488 13.9547 35.0509 13.9678 35.0529 13.981C35.0679 14.0218 35.0728 14.0639 35.0879 14.1049C35.0889 14.1129 35.09 14.121 35.0911 14.1291C35.1129 14.1881 35.1228 14.2502 35.1446 14.3089C35.18 14.4041 35.2087 14.4998 35.2478 14.5948C35.2737 14.6579 35.296 14.7239 35.322 14.7873C35.3683 14.9001 35.4249 15.0104 35.4758 15.122C35.5069 15.19 35.5485 15.2527 35.5817 15.3204C35.6757 15.5119 35.7965 15.7 35.912 15.8877C35.9493 15.9484 35.9903 16.0041 36.0316 16.0633C36.058 16.1011 36.0854 16.1435 36.1097 16.1824C36.1232 16.2039 36.1401 16.2202 36.1547 16.2411C36.1865 16.2864 36.2209 16.3351 36.2521 16.3808C36.281 16.4231 36.3136 16.4591 36.3455 16.5003C36.3799 16.5447 36.414 16.5946 36.4488 16.6392C36.5094 16.7167 36.5737 16.7915 36.6337 16.868C36.696 16.9475 36.7661 17.0179 36.8321 17.0962C36.9601 17.2481 37.1096 17.3937 37.2475 17.5461C37.2888 17.5918 37.3382 17.6316 37.3795 17.6758C37.4 17.6978 37.4345 17.717 37.4484 17.7402C37.4541 17.7496 37.4573 17.7641 37.4612 17.7748C37.4676 17.792 37.466 17.8132 37.4662 17.8313C37.4667 17.8604 37.4683 17.8899 37.4624 17.9204C37.4562 17.9519 37.4328 17.9866 37.4175 18.0178C37.4053 18.0428 37.3748 18.0648 37.3576 18.077C37.3431 18.0873 37.3371 18.0968 37.3223 18.1067C37.2838 18.1326 37.2403 18.1538 37.1982 18.1646C37.1545 18.1758 37.0981 18.1423 37.0636 18.1069C37.0033 18.0451 36.9278 17.9882 36.8699 17.9262C36.8575 17.9129 36.8438 17.907 36.8316 17.8939C36.7648 17.8216 36.6827 17.7535 36.6167 17.6823C36.6016 17.6661 36.5851 17.657 36.5705 17.6407C36.5191 17.5836 36.459 17.5322 36.4069 17.4739C36.2763 17.3279 36.1355 17.1869 36.0174 17.0399C35.9898 17.0055 35.9602 16.9784 35.9332 16.9438C35.7419 16.6995 35.5501 16.4594 35.3968 16.2105C35.3565 16.145 35.312 16.0854 35.2742 16.0197C35.1671 15.833 35.0672 15.6465 34.9755 15.4583C34.9635 15.4335 34.9547 15.4059 34.9436 15.3808C34.8934 15.2678 34.8479 15.1562 34.8028 15.043C34.7573 14.9287 34.7315 14.8093 34.689 14.6948C34.68 14.6706 34.6773 14.6444 34.6682 14.6197C34.6669 14.6107 34.6657 14.6018 34.6644 14.5929C34.6546 14.566 34.6535 14.5374 34.6439 14.5112C34.6208 14.4483 34.6137 14.3803 34.601 14.3156C34.589 14.2546 34.5727 14.1922 34.5707 14.1299C34.568 14.1186 34.5653 14.1073 34.5625 14.096C34.5612 14.0555 34.5493 14.0156 34.5481 13.9757C34.5461 13.9061 34.5331 13.8367 34.5316 13.7673C34.5297 13.6809 34.5259 13.5942 34.5265 13.5078C34.5271 13.4212 34.5354 13.3366 34.5413 13.2494C34.5571 13.0129 34.6077 12.7754 34.6744 12.5305C34.6987 12.4417 34.7375 12.3548 34.7702 12.2659C34.7928 12.2046 34.8282 12.1455 34.8535 12.0849C34.8601 12.0691 34.8704 12.0597 34.8774 12.0438C34.8926 12.0096 34.9124 11.9676 34.9494 11.9451C34.966 11.9351 35.004 11.9297 35.0235 11.9347C35.037 11.9381 35.0456 11.947 35.0578 11.9467ZM32.3594 13.6416C32.4206 13.6795 32.4158 13.735 32.4173 13.7818C32.4188 13.8302 32.4351 13.8785 32.4366 13.9273C32.4433 13.9611 32.4499 13.9949 32.4565 14.0286C32.4574 14.0559 32.4654 14.0819 32.4706 14.1086C32.476 14.1361 32.4783 14.1638 32.4882 14.1907C32.4942 14.221 32.5001 14.2514 32.5061 14.2818C32.5159 14.3086 32.517 14.3372 32.5266 14.3635C32.5565 14.4448 32.5679 14.531 32.5982 14.6122C32.6304 14.6983 32.6539 14.7873 32.6888 14.8726C32.7345 14.9844 32.7793 15.0969 32.8291 15.208C32.8545 15.2648 32.8848 15.3179 32.9119 15.3745C32.9326 15.4178 32.9524 15.4649 32.976 15.5072C33.074 15.6829 33.1752 15.8585 33.283 16.0336C33.3684 16.1723 33.4703 16.3047 33.5638 16.4414C33.5927 16.4836 33.6253 16.5199 33.6573 16.5609C33.7294 16.6536 33.8063 16.75 33.8802 16.8442C33.9501 16.9333 34.034 17.0163 34.1075 17.1035C34.1195 17.1177 34.1334 17.1254 34.1451 17.1398C34.1823 17.1858 34.2311 17.2301 34.2721 17.2753C34.2927 17.2981 34.3188 17.3139 34.3376 17.3376C34.3786 17.3896 34.4042 17.4865 34.3846 17.5469C34.3508 17.6516 34.2326 17.7221 34.1427 17.749C34.1155 17.7572 34.0732 17.7719 34.0437 17.7643C33.9972 17.7525 33.9676 17.7171 33.9404 17.6879C33.9053 17.6501 33.8644 17.6227 33.8305 17.5851C33.7677 17.5155 33.6938 17.4532 33.6311 17.383C33.4996 17.236 33.365 17.0937 33.2483 16.9441C32.978 16.5977 32.7538 16.248 32.5789 15.8887C32.5062 15.7396 32.4478 15.5858 32.3894 15.4342C32.3685 15.3802 32.3571 15.3224 32.3371 15.2685C32.3097 15.1947 32.2975 15.1185 32.2705 15.0451C32.2691 15.0353 32.2677 15.0255 32.2663 15.0157C32.2619 14.9993 32.2554 14.9835 32.2522 14.967C32.2499 14.953 32.2477 14.939 32.2455 14.925C32.2353 14.8973 32.2329 14.8687 32.2274 14.8404C32.222 14.8129 32.2136 14.7861 32.2127 14.7579C32.2087 14.7398 32.2046 14.7218 32.2006 14.7037C32.1982 14.6299 32.1775 14.5577 32.1757 14.4834C32.1753 14.4659 32.1688 14.4473 32.1683 14.4298C32.1662 14.3588 32.158 14.2876 32.1584 14.2165C32.1589 14.1356 32.158 14.0534 32.1639 13.9725C32.1662 13.9406 32.1728 13.9105 32.1744 13.8786C32.1763 13.8435 32.1835 13.81 32.1889 13.7738C32.1921 13.7523 32.1921 13.7263 32.1997 13.7046C32.2074 13.6825 32.2338 13.6469 32.2582 13.6377C32.2748 13.6315 32.3069 13.6253 32.325 13.6296C32.3387 13.6328 32.3471 13.6419 32.3594 13.6416ZM30.2974 14.0091C30.3662 14.0522 30.3471 14.1067 30.3467 14.1595C30.3459 14.2446 30.356 14.3295 30.3585 14.4142C30.3605 14.4817 30.3807 14.5487 30.3829 14.6163C30.3876 14.6377 30.3923 14.6592 30.397 14.6807C30.3982 14.7181 30.4077 14.7664 30.4208 14.8022C30.422 14.8111 30.4233 14.8201 30.4245 14.829C30.4286 14.8497 30.4337 14.8701 30.4411 14.8904C30.4429 14.9018 30.4446 14.9133 30.4463 14.9248C30.464 14.973 30.4695 15.0247 30.4874 15.0725C30.5304 15.1868 30.5645 15.3038 30.6114 15.4179C30.7131 15.6654 30.8524 15.9053 31.0006 16.1461C31.0491 16.2248 31.1094 16.298 31.1583 16.3761C31.1792 16.4095 31.2066 16.4365 31.2298 16.4688C31.293 16.557 31.3664 16.645 31.4351 16.7325C31.5303 16.8535 31.6463 16.9638 31.7475 17.0838C31.7829 17.1258 31.8277 17.1623 31.8621 17.2028C31.8928 17.2389 31.9324 17.2659 31.9652 17.3015C32.0301 17.3718 32.112 17.4388 32.1809 17.509C32.2206 17.5495 32.2679 17.5822 32.3064 17.6213C32.3493 17.665 32.4034 17.7 32.4457 17.7421C32.4564 17.7502 32.4671 17.7582 32.4778 17.7662C32.521 17.8099 32.5813 17.8486 32.6258 17.8923C32.6448 17.9109 32.6674 17.9196 32.6866 17.9383C32.749 17.999 32.8371 18.0483 32.9013 18.1096C32.9196 18.1271 32.9439 18.1389 32.9603 18.1546C32.9672 18.1588 32.9741 18.163 32.981 18.1672C33.0032 18.1883 33.0376 18.2076 33.0601 18.2289C33.0676 18.2335 33.0751 18.2381 33.0826 18.2426C33.1192 18.2774 33.1757 18.305 33.2128 18.34C33.2225 18.346 33.2323 18.352 33.2421 18.358C33.2893 18.4026 33.3642 18.4345 33.4121 18.4796C33.4336 18.4935 33.4551 18.5074 33.4766 18.5212C33.487 18.5311 33.5097 18.5396 33.522 18.5512C33.5546 18.5819 33.6096 18.606 33.645 18.6353C33.6659 18.6526 33.6988 18.6645 33.7164 18.6811C33.732 18.6958 33.7602 18.7056 33.774 18.7185C33.8189 18.746 33.8639 18.7734 33.9088 18.8009C34.0152 18.8659 34.1212 18.9268 34.2242 18.9891C34.273 19.0186 34.3335 19.0418 34.3635 19.0787C34.3805 19.0995 34.3873 19.1294 34.3962 19.1521C34.4162 19.2033 34.4245 19.264 34.4077 19.3196C34.4026 19.3366 34.3922 19.3481 34.3848 19.3658C34.3728 19.3943 34.353 19.4384 34.3175 19.4651C34.2944 19.4825 34.2703 19.5059 34.2447 19.521C34.2053 19.5442 34.1622 19.5318 34.1141 19.5147C34.0987 19.5061 34.0833 19.4974 34.0679 19.4888C33.9941 19.4617 33.9252 19.4037 33.8511 19.3763C33.8368 19.3711 33.8219 19.3579 33.8101 19.3535C33.7855 19.3392 33.7608 19.3249 33.7362 19.3106C33.7091 19.3006 33.6848 19.2763 33.6542 19.265C33.6287 19.2555 33.6025 19.2379 33.5774 19.2225C33.5682 19.2169 33.559 19.2113 33.5497 19.2056C33.5251 19.1965 33.4959 19.1772 33.4729 19.1632C33.4395 19.1428 33.4061 19.1223 33.3727 19.1019C33.3368 19.0886 33.2969 19.0579 33.2625 19.0368C33.234 19.0194 33.1953 19.0006 33.1738 18.9804C33.1542 18.9685 33.1346 18.9565 33.115 18.9445C33.0741 18.9195 33.0338 18.8949 32.9982 18.8687C32.9786 18.8567 32.959 18.8448 32.9394 18.8328C32.911 18.806 32.8618 18.7858 32.8337 18.7593C32.8204 18.7512 32.8072 18.7431 32.7939 18.735C32.7734 18.7156 32.7379 18.6986 32.7176 18.6794C32.7061 18.6724 32.6945 18.6654 32.683 18.6583C32.6674 18.6435 32.6396 18.6281 32.624 18.6133C32.6148 18.6077 32.6055 18.6021 32.5963 18.5964C32.5423 18.5452 32.4632 18.5065 32.4105 18.4562C32.3941 18.4447 32.3776 18.4331 32.3611 18.4216C32.293 18.356 32.2009 18.3034 32.1351 18.2389C32.1172 18.2213 32.0971 18.2134 32.0795 18.196C32.0187 18.1356 31.9411 18.0818 31.8826 18.0222C31.873 18.0124 31.8636 18.0101 31.854 18.0003C31.8264 17.972 31.7907 17.9427 31.764 17.9141C31.7516 17.9008 31.7381 17.8952 31.7257 17.8818C31.6332 17.7819 31.5243 17.6928 31.4347 17.5926C31.2759 17.4151 31.1102 17.2419 30.9847 17.0591C30.9562 17.0177 30.9223 16.983 30.8947 16.9417C30.8458 16.8686 30.7925 16.7966 30.7466 16.722C30.6748 16.6052 30.6076 16.4874 30.5422 16.3697C30.4962 16.287 30.4597 16.1979 30.422 16.1135C30.391 16.0442 30.3614 15.9769 30.3329 15.9075C30.3049 15.8393 30.2848 15.7684 30.2587 15.6995C30.2321 15.6294 30.2212 15.5551 30.1953 15.4847C30.1854 15.4579 30.1865 15.4242 30.1767 15.3975C30.1526 15.3318 30.1468 15.2604 30.1335 15.1929C30.0771 14.9046 30.0712 14.6094 30.096 14.3095C30.1017 14.2403 30.1185 14.1748 30.1318 14.1041C30.1379 14.0719 30.1503 14.031 30.192 14.0071C30.2053 13.9995 30.2476 13.9935 30.2631 13.997C30.2758 13.9999 30.2857 14.0093 30.2974 14.0091Z" fill="#3B434F"/>
</g>
<defs>
<clipPath id="clip0_1_23">
<rect width="69" height="59" fill="white"/>
</clipPath>
</defs>
</svg>
