<svg width="62" height="43" viewBox="0 0 62 43" fill="none" xmlns="http://www.w3.org/2000/svg">
<path d="M15.9036 11.9148V8.59867C15.9036 3.86327 22.6357 0 30.9981 0C39.3605 0 46.0926 3.86327 46.0926 8.59867V11.9148H56.526C57.004 11.915 57.4641 12.0146 57.8136 12.1937C58.1631 12.3727 58.3762 12.6179 58.4098 12.8798L61.9962 41.8957C62.0278 42.1699 61.8608 42.4397 61.5317 42.6466C61.2026 42.8534 60.7381 42.9804 60.2392 43H1.8838C1.38418 43 0.905031 42.891 0.551751 42.697C0.19847 42.5029 0 42.2398 0 41.9654V41.8957L3.58646 12.8798C3.61859 12.6173 3.83098 12.3713 4.18068 12.1916C4.53037 12.0118 4.9913 11.9117 5.47026 11.9115L15.9036 11.9148ZM21.5671 11.9148H40.4352V8.59867C40.4352 5.55117 36.2087 3.10719 30.9981 3.10719C25.7875 3.10719 21.5671 5.55117 21.5671 8.59867V11.9148ZM5.92309 39.8961H56.0731L53.0059 15.0253H8.99634L5.92309 39.8961Z" fill="black"/>
</svg>
